<svg xmlns="http://www.w3.org/2000/svg" viewBox="0 0 100 100" fill="none">
  <defs>
    <linearGradient id="goldF" x1="0%" y1="0%" x2="100%" y2="100%">
      <stop offset="0%" stop-color="#F5D06A"/>
      <stop offset="50%" stop-color="#D4A83A"/>
      <stop offset="100%" stop-color="#F0C84A"/>
    </linearGradient>
    <linearGradient id="greenF" x1="0%" y1="0%" x2="100%" y2="100%">
      <stop offset="0%" stop-color="#1e4030"/>
      <stop offset="100%" stop-color="#0f2518"/>
    </linearGradient>
  </defs>

  <!-- Star -->
  <path d="M50 4 L52.5 11.5 L60.5 11.5 L54 16 L56.5 23.5 L50 19 L43.5 23.5 L46 16 L39.5 11.5 L47.5 11.5 Z" fill="url(#goldF)"/>

  <!-- Left ear -->
  <path d="M22 48 Q12 26 26 23 Q38 21 38 40 Z" fill="url(#greenF)" stroke="url(#goldF)" stroke-width="3.5" stroke-linejoin="round"/>
  <!-- Right ear -->
  <path d="M78 48 Q88 26 74 23 Q62 21 62 40 Z" fill="url(#greenF)" stroke="url(#goldF)" stroke-width="3.5" stroke-linejoin="round"/>

  <!-- Head -->
  <circle cx="50" cy="66" r="38" fill="url(#greenF)" stroke="url(#goldF)" stroke-width="4"/>

  <!-- Nose ring -->
  <circle cx="50" cy="72" r="15" fill="none" stroke="url(#goldF)" stroke-width="3"/>

  <!-- Nostrils -->
  <rect x="43" y="68" width="5" height="9" rx="2.5" fill="url(#goldF)"/>
  <rect x="52" y="68" width="5" height="9" rx="2.5" fill="url(#goldF)"/>
</svg>
